<?xml version="1.0" standalone="no"?>
<!DOCTYPE svg PUBLIC "-//W3C//DTD SVG 20010904//EN"
 "http://www.w3.org/TR/2001/REC-SVG-20010904/DTD/svg10.dtd">
<svg version="1.0" xmlns="http://www.w3.org/2000/svg"
 width="273.000000pt" height="323.000000pt" viewBox="0 0 273.000000 323.000000"
 preserveAspectRatio="xMidYMid meet">

<g transform="translate(0.000000,323.000000) scale(0.100000,-0.100000)"
fill="#9800DA" stroke="none">
<path d="M1274 3140 c-87 -12 -167 -37 -206 -65 -18 -14 -48 -32 -66 -40 -52
-25 -164 -100 -204 -138 -21 -19 -50 -40 -66 -46 -58 -24 -165 -153 -196 -236
-6 -16 -9 -17 -17 -5 -8 11 -9 10 -4 -7 4 -16 2 -23 -7 -23 -21 0 -58 -63 -85
-147 -22 -69 -24 -88 -19 -173 4 -52 13 -124 20 -160 l14 -65 -5 115 c-2 63 0
135 5 160 7 37 9 22 10 -81 2 -261 88 -474 262 -650 126 -129 278 -218 431
-254 83 -19 309 -20 410 -1 182 35 320 111 484 266 39 36 86 78 107 93 26 19
48 51 77 112 49 102 53 125 8 39 -18 -33 -41 -72 -52 -85 -22 -26 -85 -73 -90
-67 -1 1 -8 34 -14 73 -8 56 -8 72 4 85 7 8 32 56 55 105 23 50 45 97 49 105
10 19 90 68 114 69 9 1 17 7 17 15 0 18 -45 7 -94 -23 -18 -12 -36 -21 -39
-21 -3 0 -11 16 -17 35 -7 20 -28 59 -47 88 -31 45 -36 63 -44 142 -4 49 -15
111 -22 136 -16 53 -15 56 31 88 23 16 40 21 57 17 30 -8 33 9 6 24 -11 5 -27
33 -36 62 -23 71 -76 148 -128 185 -41 30 -158 93 -171 93 -4 0 -41 20 -84 44
-42 24 -102 52 -132 61 -30 9 -64 28 -76 41 -14 18 -37 27 -80 34 -65 11 -73
11 -160 0z m378 -128 c113 -55 118 -60 117 -130 -2 -103 -7 -113 -68 -133 -30
-11 -85 -33 -122 -50 l-69 -32 -72 31 c-40 17 -89 38 -109 45 l-36 15 -6 77
c-13 152 -10 158 107 199 98 35 149 31 258 -22z m-489 -3 c40 -6 78 -16 85
-21 8 -7 12 -45 12 -122 l0 -112 -106 -73 -105 -73 -71 16 c-39 9 -91 16 -117
16 -70 0 -73 5 -73 103 0 101 11 122 94 184 126 93 154 101 281 82z m715 -375
c69 -57 123 -109 131 -128 36 -80 53 -244 29 -263 -7 -5 -52 -31 -99 -56 l-85
-46 -76 62 c-42 34 -106 86 -142 115 -56 45 -66 58 -66 85 0 17 -5 80 -12 139
-7 59 -9 110 -6 113 14 14 165 75 186 75 15 0 66 -35 140 -96z m-931 -35 c43
-7 81 -17 85 -23 4 -6 8 -24 8 -39 0 -16 9 -74 20 -129 12 -56 17 -104 13
-107 -4 -4 -53 -51 -109 -104 l-101 -98 -45 16 c-26 8 -67 18 -92 21 -26 4
-49 11 -52 15 -8 14 -34 172 -34 212 0 47 34 116 95 190 43 54 49 57 90 57 24
0 79 -5 122 -11z m-470 -111 c-3 -8 -6 -5 -6 6 -1 11 2 17 5 13 3 -3 4 -12 1
-19z m126 -160 c3 -51 13 -117 22 -147 11 -34 14 -67 10 -92 -8 -46 -24 -53
-17 -8 2 17 0 40 -6 52 -5 12 -15 42 -22 67 -7 25 -17 55 -22 67 -6 12 -8 33
-4 47 3 14 2 26 -3 26 -19 0 -22 34 -5 47 17 12 16 13 -3 13 -12 0 -24 -6 -26
-12 -3 -7 -6 6 -6 30 l-1 42 38 -19 39 -20 6 -93z m-146 70 c-3 -8 -6 -5 -6 6
-1 11 2 17 5 13 3 -3 4 -12 1 -19z m1146 -91 c23 -18 86 -68 140 -111 l97 -78
-1 -67 c-1 -36 -4 -95 -8 -131 -6 -62 -7 -65 -46 -87 -42 -24 -80 -29 -90 -13
-12 19 -172 118 -215 132 l-45 15 -22 94 c-39 161 -41 153 52 220 44 32 84 59
88 59 5 0 27 -15 50 -33z m-1096 -29 c-3 -8 -6 -5 -6 6 -1 11 2 17 5 13 3 -3
4 -12 1 -19z m690 -27 c51 -16 106 -32 122 -36 34 -7 32 -2 62 -150 l22 -111
-24 -25 c-13 -14 -51 -56 -83 -93 l-60 -69 -85 6 c-47 3 -94 8 -103 12 -29 12
-148 230 -148 273 0 8 17 36 37 61 40 49 153 161 162 161 4 0 48 -13 98 -29z
m-356 -576 c17 -9 29 -24 29 -35 0 -11 -3 -20 -6 -20 -10 0 -124 101 -164 144
-81 89 -70 97 18 13 51 -48 106 -94 123 -102z m1196 130 c2 -1 6 -35 9 -76 l6
-74 -44 -41 c-68 -66 -177 -143 -219 -155 -27 -8 -71 -9 -151 -3 l-113 9 -3
57 c-3 57 -3 57 35 77 37 19 125 104 156 150 8 13 33 34 54 47 36 21 45 22
153 17 63 -3 116 -7 117 -8z m-762 -106 c28 -20 85 -56 128 -79 59 -32 77 -47
78 -63 0 -12 2 -36 3 -53 5 -45 -1 -51 -74 -73 -79 -25 -104 -27 -96 -6 4 10
-1 15 -15 15 -11 0 -31 7 -44 16 -14 9 -32 14 -40 10 -9 -3 -28 7 -47 26 -17
17 -46 35 -65 40 -22 6 -47 27 -75 63 -42 52 -66 70 -54 40 3 -8 1 -15 -3 -15
-5 0 -12 7 -15 16 -4 10 -13 13 -26 9 -11 -3 -20 -2 -20 4 0 5 8 12 18 15 9 3
35 24 57 45 l40 40 100 -6 c96 -6 102 -8 150 -44z m-382 -144 c21 -44 21 -44
-2 -38 -12 3 -17 11 -14 23 3 10 0 21 -6 24 -13 8 -15 26 -3 26 5 0 16 -16 25
-35z"/>
<path d="M670 2211 c0 -6 4 -13 10 -16 6 -3 7 1 4 9 -7 18 -14 21 -14 7z"/>
<path d="M2272 2810 c0 -14 2 -19 5 -12 2 6 2 18 0 25 -3 6 -5 1 -5 -13z"/>
<path d="M71 2308 c-4 -64 70 -349 105 -408 18 -30 17 -25 -24 110 -16 52 -34
118 -40 145 -27 120 -40 169 -41 153z"/>
<path d="M441 2020 c0 -8 4 -24 9 -35 5 -13 9 -14 9 -5 0 8 -4 24 -9 35 -5 13
-9 14 -9 5z"/>
<path d="M2414 1948 c-15 -46 -36 -103 -46 -127 -10 -24 -16 -46 -14 -48 3 -3
12 12 21 33 28 66 77 216 72 221 -3 2 -17 -33 -33 -79z"/>
<path d="M895 1384 c31 -24 164 -85 220 -100 83 -24 259 -35 360 -23 99 11
262 60 297 89 17 14 -2 10 -68 -15 -112 -42 -188 -55 -328 -55 -158 0 -293 29
-422 91 -68 32 -90 37 -59 13z"/>
<path d="M659 1287 c26 -28 31 -32 31 -19 0 4 -13 16 -28 26 l-27 19 24 -26z"/>
<path d="M1155 1148 c-4 -15 -4 -32 0 -38 14 -22 -6 -50 -35 -50 -23 0 -28 -4
-23 -16 3 -9 0 -20 -8 -25 -12 -8 -11 -11 4 -20 9 -5 17 -16 17 -24 0 -8 12
-20 27 -27 48 -24 67 -61 65 -127 -5 -168 -123 -403 -214 -425 -15 -3 -35 -19
-45 -34 -49 -80 -92 -138 -140 -189 -70 -74 -76 -86 -58 -109 12 -17 29 -19
172 -20 87 -1 145 0 128 2 -16 2 -55 7 -85 11 l-55 6 43 9 c34 7 41 12 33 22
-17 20 96 26 528 26 212 0 392 4 400 9 34 22 -44 29 -394 35 -420 7 -520 13
-505 31 5 6 24 10 42 8 23 -3 29 -1 20 5 -12 8 -11 15 2 40 12 23 13 31 3 35
-15 5 13 57 40 72 10 6 21 14 24 19 4 5 11 6 17 2 6 -3 12 0 14 6 4 10 70 14
274 18 l269 5 -21 21 c-21 21 -30 22 -264 22 -164 0 -245 3 -253 11 -8 8 -5
11 11 11 32 0 44 29 93 224 29 119 44 144 92 157 22 6 62 9 89 7 45 -3 58 4
58 32 0 4 -54 9 -120 12 -74 2 -125 9 -132 16 -8 8 -8 12 -1 12 6 0 11 37 12
100 1 74 -2 100 -11 100 -9 0 -8 3 2 10 8 5 42 10 76 10 84 0 214 12 214 19 0
3 -90 6 -200 6 l-200 0 -5 -27z m-98 -890 c-3 -8 -6 -5 -6 6 -1 11 2 17 5 13
3 -3 4 -12 1 -19z m-7 -22 c0 -3 -4 -8 -10 -11 -5 -3 -10 -1 -10 4 0 6 5 11
10 11 6 0 10 -2 10 -4z"/>
<path d="M1793 1149 c-18 -12 -33 -23 -33 -25 0 -5 44 18 70 35 29 20 -5 10
-37 -10z"/>
<path d="M1558 1098 c-13 -32 -21 -168 -11 -168 17 0 33 25 24 36 -16 16 0 64
27 78 l25 13 -26 7 c-16 4 -27 14 -29 29 -3 19 -4 19 -10 5z"/>
<path d="M987 1056 c27 -20 73 -38 73 -28 0 7 -29 20 -85 40 -5 2 0 -3 12 -12z"/>
<path d="M910 1045 c0 -9 150 -78 156 -72 5 4 -136 77 -150 77 -3 0 -6 -2 -6
-5z"/>
</g>
</svg>
